# xmcd
#
# Track frame offsets: 
#        150
#        18139
#        34067
#        52539
#        71566
#        86956
#        102108
#        120291
#        138219
#        155866
#        166987
#
# Disc length: 2466 seconds
#
# Revision: 0
# Processed by: cddbd v1.5.2PL0 Copyright (c) Steve Scherf et al.
# Submitted via: ExactAudioCopyFreeDBPlugin 1.0
#
DISCID=8009a00b
DTITLE=Mississippi Shakedown - Right Here Right Now
DYEAR=2007
DGENRE=Blues
TTITLE0=Keep Those Homefires Burning
TTITLE1=Right Here Right Now
TTITLE2=Mean And Evil
TTITLE3=Drinkin'
TTITLE4=Mississippi Minor
TTITLE5=Extra Mile
TTITLE6=Fool's Paradise
TTITLE7=Talk In Texas
TTITLE8=I've Had A Really Bad Day
TTITLE9=Man Of The Century
TTITLE10=The Twist
EXTD=
EXTT0=
EXTT1=
EXTT2=
EXTT3=
EXTT4=
EXTT5=
EXTT6=
EXTT7=
EXTT8=
EXTT9=
EXTT10=
PLAYORDER=
